<svg data-v-423bf9ae="" xmlns="http://www.w3.org/2000/svg" viewBox="0 0 NaN NaN" class="fontAboveSlogan"><!----><!----><!----><g data-v-423bf9ae="" id="fd21d6c8-d9f0-4a57-9c7a-ef99319562e3" fill="#000000" transform="matrix(11.505272913602047,0,0,11.505272913602047,-194.08490480600184,-41.869510281258016)"><path d="M1.15 4.59C1.15 5.03 1.46 5.35 1.86 5.35C2.27 5.35 2.58 5.03 2.58 4.59C2.58 4.16 2.27 3.84 1.86 3.84C1.46 3.84 1.15 4.16 1.15 4.59ZM1.33 14.08L2.41 14.08L2.41 6.71L1.33 6.71ZM3.89 5.36L7.08 5.36L7.08 14.08L8.20 14.08L8.20 5.36L11.41 5.36L11.41 4.28L3.89 4.28ZM12.14 10.40C12.14 12.60 13.64 14.13 15.81 14.13C17.04 14.13 18.07 13.68 18.77 12.89L18.17 12.25C17.60 12.85 16.80 13.17 15.89 13.17C14.46 13.17 13.41 12.26 13.22 10.82L19.24 10.82C19.35 8.32 18.17 6.66 15.79 6.68C13.65 6.68 12.14 8.20 12.14 10.40ZM13.22 9.93C13.38 8.53 14.39 7.62 15.79 7.62C17.23 7.62 18.19 8.51 18.26 9.93ZM20.37 10.40C20.37 12.60 21.88 14.13 24.02 14.13C25.30 14.13 26.32 13.65 26.98 12.85L26.35 12.18C25.83 12.80 25.03 13.13 24.07 13.13C22.54 13.13 21.45 12.01 21.45 10.40C21.45 8.79 22.54 7.69 24.07 7.69C24.96 7.69 25.70 8.01 26.26 8.54L26.87 7.77C26.19 7.07 25.21 6.66 24.02 6.68C21.90 6.68 20.37 8.20 20.37 10.40ZM29.04 14.08L30.13 14.08L30.13 10.46C30.13 8.88 31.05 7.77 32.62 7.76C33.92 7.76 34.71 8.53 34.71 9.83L34.71 14.08L35.80 14.08L35.80 9.53C35.80 7.76 34.76 6.66 33.00 6.66C31.64 6.68 30.63 7.21 30.13 8.36L30.13 3.70L29.04 3.70Z"></path></g><!----><!----><g data-v-423bf9ae="" id="c6e725f3-bda1-49f0-8565-05069341b24f" fill="#000000" transform="matrix(Infinity,0,0,Infinity,0,0)"><path d=""></path></g></svg>