<?xml version="1.0" standalone="no"?>
<!DOCTYPE svg PUBLIC "-//W3C//DTD SVG 20010904//EN"
 "http://www.w3.org/TR/2001/REC-SVG-20010904/DTD/svg10.dtd">
<svg version="1.0" xmlns="http://www.w3.org/2000/svg"
 width="140px" height="140px" viewBox="0 0 1000.000000 1000.000000"
 preserveAspectRatio="xMidYMid meet">

<g transform="translate(0.000000,1000.000000) scale(0.100000,-0.100000)"
fill="#000000" stroke="none">
<path d="M7240 5005 l0 -1095 115 0 115 0 0 433 c0 396 2 440 19 509 27 103
63 171 129 240 63 66 159 120 249 138 34 7 102 11 163 8 92 -4 115 -8 172 -35
112 -53 175 -124 214 -243 16 -49 18 -106 22 -552 l3 -498 115 0 115 0 -4 543
c-4 603 -4 602 -73 739 -66 132 -197 231 -354 269 -83 21 -278 15 -371 -9
-157 -42 -268 -118 -348 -237 l-51 -77 0 481 0 481 -115 0 -115 0 0 -1095z"/>
<path d="M1403 6050 c-93 -56 -89 -218 6 -274 40 -23 106 -24 149 -2 98 51
101 221 4 279 -41 23 -118 22 -159 -3z"/>
<path d="M1910 5865 l0 -115 340 0 340 0 0 -920 0 -920 120 0 120 0 0 920 0
920 335 0 335 0 0 115 0 115 -795 0 -795 0 0 -115z"/>
<path d="M1370 4690 l0 -780 115 0 115 0 0 780 0 780 -115 0 -115 0 0 -780z"/>
<path d="M4253 5455 c-266 -60 -462 -233 -548 -484 -74 -219 -53 -496 53 -695
49 -91 156 -205 245 -260 40 -25 115 -60 167 -78 93 -32 99 -33 265 -33 148 0
180 3 249 23 113 33 240 101 316 171 l65 59 -64 66 -65 65 -40 -33 c-118 -96
-245 -144 -400 -153 -226 -12 -409 73 -518 241 -36 57 -88 195 -88 237 0 19
12 19 635 19 l635 0 0 94 c0 384 -187 668 -495 752 -82 23 -328 28 -412 9z
m319 -196 c135 -28 266 -126 322 -240 32 -66 56 -150 56 -196 l0 -33 -531 0
-531 0 7 43 c33 200 178 363 370 418 70 21 228 24 307 8z"/>
<path d="M6011 5460 c-293 -62 -505 -261 -583 -548 -28 -102 -30 -333 -5 -434
68 -275 248 -465 517 -550 66 -20 95 -23 240 -23 193 0 245 11 388 82 66 32
113 64 163 112 l70 66 -66 73 -67 73 -47 -46 c-161 -160 -494 -204 -705 -92
-381 200 -378 838 5 1026 208 102 490 69 676 -78 l52 -40 60 76 c34 41 61 79
61 84 0 17 -110 102 -180 139 -125 64 -202 82 -380 86 -85 1 -175 -1 -199 -6z"/>
</g>
</svg>
